<svg width="170" height="153" viewBox="0 0 170 153" fill="none" xmlns="http://www.w3.org/2000/svg">
<path opacity="0.2" d="M18.3364 1.31167C10.7765 -0.86116 2.8866 3.50588 0.713772 11.0657C-1.45906 18.6256 2.90798 26.5155 10.4678 28.6883L14.4021 15L18.3364 1.31167ZM41.3953 22.7583L37.461 36.4466L41.3953 22.7583ZM43.4564 323.294L47.578 336.927L43.4564 323.294ZM14.4021 15L10.4678 28.6883L17.2161 30.6279L21.1504 16.9396L25.0847 3.25125L18.3364 1.31167L14.4021 15ZM34.647 20.8187L30.7127 34.5071L37.461 36.4466L41.3953 22.7583L45.3295 9.06998L38.5812 7.1304L34.647 20.8187ZM41.3953 22.7583L37.461 36.4466C39.1449 36.9306 40.8065 37.4371 42.4462 37.9656L46.8152 24.4098L51.1843 10.854C49.2547 10.2321 47.3031 9.63722 45.3295 9.06998L41.3953 22.7583ZM57.3353 28.1804L52.0922 41.4226C55.3039 42.6943 58.4232 44.0548 61.4507 45.4986L67.5814 32.6431L73.7122 19.7877C70.0982 18.0642 66.3867 16.4459 62.5785 14.9381L57.3353 28.1804ZM77.5407 37.8304L70.5165 50.2203C73.5038 51.9139 76.3923 53.6945 79.1825 55.5562L87.0873 43.7087L94.9921 31.8612C91.6273 29.6162 88.1513 27.4738 84.5649 25.4405L77.5407 37.8304ZM96.1694 50.2656L87.4096 61.4957C90.0956 63.5908 92.6784 65.7678 95.1584 68.0205L104.735 57.4781L114.311 46.9356C111.306 44.2058 108.178 41.5698 104.929 39.0354L96.1694 50.2656ZM112.733 65.3134L102.39 75.1046C104.723 77.569 106.949 80.1079 109.068 82.7145L120.119 73.7297L131.17 64.7448C128.602 61.587 125.905 58.5099 123.076 55.5222L112.733 65.3134ZM126.853 82.678L115.161 90.8107C117.098 93.5949 118.924 96.4432 120.641 99.3487L132.903 92.1044L145.166 84.8601C143.094 81.3539 140.888 77.9127 138.545 74.5453L126.853 82.678ZM138.245 101.954L125.485 108.282C126.994 111.325 128.391 114.419 129.675 117.558L142.857 112.166L156.04 106.774C154.499 103.007 152.821 99.2881 151.004 95.6259L138.245 101.954ZM146.727 122.68L133.195 127.123C134.256 130.356 135.203 133.626 136.035 136.925L149.845 133.441L163.655 129.958C162.661 126.018 161.529 122.108 160.259 118.238L146.727 122.68ZM152.207 144.393L138.189 146.913C138.792 150.268 139.279 153.644 139.651 157.034L153.809 155.482L167.966 153.93C167.524 149.895 166.944 145.873 166.225 141.874L152.207 144.393ZM154.648 166.654L140.418 167.237C140.557 170.646 140.581 174.06 140.488 177.471L154.725 177.858L168.962 178.245C169.073 174.188 169.045 170.127 168.879 166.072L154.648 166.654ZM154.039 189.041L139.861 187.683C139.536 191.078 139.095 194.46 138.538 197.824L152.589 200.15L166.64 202.477C167.304 198.468 167.83 194.439 168.216 190.398L154.039 189.041ZM150.378 211.134L136.522 207.84C135.735 211.15 134.833 214.433 133.816 217.68L147.407 221.936L160.999 226.193C162.216 222.305 163.295 218.381 164.234 214.427L150.378 211.134ZM143.682 232.503L130.427 227.293C129.187 230.448 127.833 233.562 126.366 236.625L139.211 242.777L152.056 248.93C153.822 245.243 155.449 241.501 156.938 237.714L143.682 232.503ZM134.005 252.699L121.644 245.624C119.968 248.553 118.18 251.426 116.282 254.236L128.085 262.208L139.887 270.179C142.183 266.78 144.342 263.309 146.365 259.775L134.005 252.699ZM121.474 271.248L110.301 262.415C108.217 265.051 106.026 267.62 103.727 270.116L114.204 279.764L124.68 289.413C127.467 286.387 130.123 283.273 132.647 280.08L121.474 271.248ZM106.314 287.709L96.5936 277.299C94.1448 279.585 91.5921 281.797 88.9351 283.929L97.848 295.038L106.761 306.147C109.975 303.568 113.066 300.89 116.034 298.119L106.314 287.709ZM88.8567 301.719L80.7901 289.981C78.0257 291.881 75.162 293.701 72.1981 295.435L79.3916 307.727L86.5851 320.02C90.1433 317.938 93.5896 315.748 96.9232 313.457L88.8567 301.719ZM69.5044 313.051L63.1979 300.281C60.1905 301.766 57.0902 303.169 53.8962 304.485L59.3205 317.654L64.7448 330.823C68.532 329.263 72.2209 327.594 75.8109 325.821L69.5044 313.051ZM48.8531 321.568L44.2985 308.074C42.6663 308.625 41.0118 309.154 39.3348 309.661L43.4564 323.294L47.578 336.927C49.5436 336.333 51.4868 335.711 53.4076 335.063L48.8531 321.568ZM43.4564 323.294L39.3348 309.661L36.344 310.565L40.4656 324.198L44.5872 337.831L47.578 336.927L43.4564 323.294ZM34.4839 326.006L30.3623 312.373L27.3715 313.278L31.4931 326.911L35.6147 340.544L38.6056 339.64L34.4839 326.006Z" fill="url(#paint0_linear_13_677)"/>
<defs>
<linearGradient id="paint0_linear_13_677" x1="14.4021" y1="15" x2="587.198" y2="106.2" gradientUnits="userSpaceOnUse">
<stop stop-color="#00C7BE"/>
<stop offset="1" stop-color="#0097C7"/>
</linearGradient>
</defs>
</svg>
