<svg width="48" height="48" viewBox="0 0 48 48" fill="none" xmlns="http://www.w3.org/2000/svg">
<rect width="48" height="48" rx="12" fill="url(#paint0_linear_1_932)"/>
<path fill-rule="evenodd" clip-rule="evenodd" d="M34 18C34 17.4477 33.5523 17 33 17H15C14.4477 17 14 17.4477 14 18C14 18.5523 14.4477 19 15 19H33C33.5523 19 34 18.5523 34 18ZM34 24C34 23.4477 33.5523 23 33 23H15C14.4477 23 14 23.4477 14 24C14 24.5523 14.4477 25 15 25H33C33.5523 25 34 24.5523 34 24ZM34 30C34 29.4477 33.5523 29 33 29H25C24.4477 29 24 29.4477 24 30C24 30.5523 24.4477 31 25 31H33C33.5523 31 34 30.5523 34 30Z" fill="white"/>
<defs>
<linearGradient id="paint0_linear_1_932" x1="0" y1="0" x2="51.9901" y2="4.80224" gradientUnits="userSpaceOnUse">
<stop stop-color="#00C7BE"/>
<stop offset="1" stop-color="#0097C7"/>
</linearGradient>
</defs>
</svg>
